<svg xmlns="http://www.w3.org/2000/svg" xml:space="preserve" width="666.667" height="666.667" style="shape-rendering:geometricPrecision;text-rendering:geometricPrecision;image-rendering:optimizeQuality;fill-rule:evenodd;clip-rule:evenodd" viewBox="0 0 17639 17639" id="professional">
  <g id="Layer_x0020_1">
    <g id="_784529504">
      <path d="M3530 12768V4871l6105-1105v10107l-6105-1105zm6348-7688h4198l1 7549H9878v-1975l1051 943 1151-1132-1155-1215-1050 919 3-3219h2399v1552h-882l1162 1203 1131-1203h-847V6350H9878V5080zM2081 15593h13476V2118l-13476-1v13476z" style="fill:#2e7237"></path>
      <path d="M6315 7726c442-16 702 5 713 514-1 495-245 553-711 553l-2-1067zm-600-600v3422l597 44 8-1193c890 8 1381-300 1381-1211-9-1367-1031-1103-1986-1062z" style="fill:#2e7237"></path>
    </g>
  </g>
</svg>
