<svg xmlns="http://www.w3.org/2000/svg" width="26" height="26" id="salesforce">
  <path d="M13 0C5.826 0 0 5.826 0 13s5.826 13 13 13 13-5.826 13-13S20.174 0 13 0zm0 1.002c6.633 0 12 5.365 12 11.998 0 6.633-5.367 12-12 12S1 19.633 1 13 6.367 1.002 13 1.002zm4.676 4.521v.004c-1.02-.044-2.017.396-2.737 1.182-1.148-.427-2.282.089-3.01 1.01-.622-.85-1.623-1.354-2.679-1.157h-.002a2.78 2.78 0 0 0-2.215 3.235l.004.014c-.447.134-.93.198-1.262.539-.963.99-.912 2.478-.105 3.55-.785 1.049-.838 2.481-.248 3.565.35.643 1.021 1.233 1.851 1.617.71.328 1.557.416 2.387.197.076.092.147.18.3.344a2.534 2.534 0 0 0 1.769.799c.699 0 1.342-.162 1.873-.54.73.537 1.654.76 2.53.444 1.2-.43 1.736-1.636 1.64-2.851 1.626.103 3.055-1.115 3.181-2.745.097-1.247-.713-2.186-1.77-2.716.48-.271.913-.616 1.221-1.086a3.5 3.5 0 0 0-1.004-4.84 3.474 3.474 0 0 0-1.724-.565zm-.227.987v.004c.48-.01.968.13 1.403.414a2.483 2.483 0 0 1 .716 3.453c-.376.572-.97.964-1.644 1.086-.55.09-.562.878-.014.984a.504.504 0 0 0 .211.06 1.99 1.99 0 0 1 1.836 2.145 1.988 1.988 0 0 1-2.145 1.834l-.417-.033a.5.5 0 0 0-.532.664 1.765 1.765 0 0 1-1.068 2.268 1.757 1.757 0 0 1-1.514-.162 3.21 3.21 0 0 0 .692-1.977v-4.74h.99v-1h-.99v-.25a2.23 2.23 0 0 1 2.246-2.244v-1a3.25 3.25 0 0 0-3.246 3.244v.25h-1.006v1h1.006v4.74c0 1.217-.94 2.18-2.141 2.234a1.762 1.762 0 0 1-1.143-.548h-.002a5.27 5.27 0 0 1-.365-.422h-.004a.5.5 0 0 0-.634-.215c-.631.274-1.345.18-1.99-.12-.646-.298-1.192-.816-1.393-1.185-.453-.831-.423-2.072.228-2.723a.5.5 0 0 0-.004-.71 1.765 1.765 0 0 1-.033-2.506c.33-.34.782-.534 1.256-.537a.5.5 0 0 0 .402-.791l-.12-.168c-.14-.943.457-1.83 1.402-2.006a1.77 1.77 0 0 1 1.882.898l.084.205a.5.5 0 0 0 .928-.011c.351-.89 1.325-1.306 2.22-.999l.048.055a.5.5 0 0 0 .797-.05c.38-.579.956-.95 1.582-1.079v-.01a2.54 2.54 0 0 1 .476-.052zm-6.412 3.023c-1.18.031-2.08 1.088-2.055 2.301.013.577.19 1.107.534 1.506.343.398.85.645 1.42.69h-.018c.524.06.556.09.828.49.381.558.266 1.372-.232 1.775-.498.403-1.14.306-1.522-.252l-.826.562c.678.993 2.05 1.217 2.977.467s1.107-2.125.43-3.117c-.355-.518-.858-.842-1.542-.92h-.02c-.34-.026-.568-.149-.738-.346-.17-.196-.282-.484-.29-.873-.016-.717.488-1.264 1.081-1.279h.002a.987.987 0 0 1 .65.22l.614-.79a1.997 1.997 0 0 0-1.29-.434h-.003z" color="#000" font-family="sans-serif" font-weight="400" overflow="visible" style="line-height:normal;text-indent:0;text-align:start;text-decoration-line:none;text-decoration-style:solid;text-decoration-color:#000;text-transform:none;block-progression:tb;isolation:auto;mix-blend-mode:normal"></path>
</svg>
